# AST/ASF file generated using VICON BodyLanguage
# -----------------------------------------------
:version 1.10
:name VICON
:units
  mass 1.0
  length 0.45
  angle deg
:documentation
   .ast/.asf automatically generated from VICON data using
   VICON BodyBuilder and BodyLanguage model FoxedUp or BRILLIANT.MOD
:root
   order TX TY TZ RX RY RZ
   axis XYZ
   position 0 0 0  
   orientation 0 0 0 
:bonedata
  begin
     id 1 
     name lhipjoint
     direction 0.577973 -0.728611 0.367523 
     length 2.48544 
     axis 0 0 0  XYZ
  end
  begin
     id 2 
     name lfemur
     direction 0.34202 -0.939693 0  
     length 7.1921  
     axis 0 0 20  XYZ
    dof rx ry rz
    limits (-160.0 20.0)
           (-70.0 70.0)
           (-60.0 70.0)
  end
  begin
     id 3 
     name ltibia
     direction 0.34202 -0.939693 0   
     length 7.71059   
     axis 0 0 20   XYZ
    dof rx
    limits (-10.0 170.0)
  end
  begin
     id 4 
     name lfoot
     direction 0.089538 -0.246004 0.965124   
     length 2.19909   
     axis -90 7.62852e-016 20   XYZ
    dof rx rz
    limits (-45.0 90.0)
           (-70.0 20.0)
  end
  begin
     id 5 
     name ltoes
     direction 1.53544e-011 -4.21829e-011 1   
     length 1.10116   
     axis -90 7.62852e-016 20   XYZ
    dof rx
    limits (-90.0 20.0)
  end
  begin
     id 6 
     name rhipjoint
     direction -0.554414 -0.743062 0.374812   
     length 2.4371  
     axis 0 0 0  XYZ 
  end
  begin
     id 7 
     name rfemur
     direction -0.34202 -0.939693 0   
     length 7.47254   
     axis 0 0 -20   XYZ
    dof rx ry rz
    limits (-160.0 20.0)
           (-70.0 70.0)
           (-70.0 60.0)
  end
  begin
     id 8 
     name rtibia
     direction -0.34202 -0.939693 0   
     length 7.65855   
     axis 0 0 -20   XYZ
    dof rx
    limits (-10.0 170.0)
 end
 begin
     id 9 
     name rfoot
     direction -0.133779 -0.367555 0.92033   
     length 2.43006  
     axis -90 -7.62852e-016 -20   XYZ
    dof rx rz
    limits (-45.0 90.0)
           (-20.0 70.0)
  end
  begin
     id 10 
     name rtoes
     direction -1.53563e-011 -4.21889e-011 1   
     length 1.19625   
     axis -90 -7.62852e-016 -20   XYZ
    dof rx
    limits (-90.0 20.0)
  end
  begin
     id 11 
     name lowerback
     direction 0.0249066 0.998043 -0.0573585   
     length 2.08485   
     axis 0 0 0   XYZ
    dof rx ry rz
    limits (-20.0 45.0)
           (-30.0 30.0)
           (-30.0 30.0)
  end
  begin
     id 12 
     name upperback
     direction 0.0237884 0.999673 0.00943178   
     length 2.08515   
     axis 0 0 0   XYZ
    dof rx ry rz
    limits (-20.0 45.0)
           (-30.0 30.0)
           (-30.0 30.0)
  end
  begin
     id 13 
     name thorax
     direction 0.0106671 0.999301 0.0358174   
     length 2.09037   
     axis 0 0 0   XYZ
    dof rx ry rz
    limits (-20.0 45.0)
           (-30.0 30.0)
           (-30.0 30.0)
  end
  begin
     id 14 
     name lowerneck
     direction -0.0580016 0.987052 0.149546   
     length 1.84454   
     axis 0 0 0   XYZ
    dof rx ry rz
    limits (-20.0 45.0)
           (-30.0 30.0)
           (-30.0 30.0)
  end
  begin
     id 15 
     name upperneck
     direction 0.079456 0.981963 -0.171567   
     length 1.88141   
     axis 0 0 0   XYZ
    dof rx ry rz
    limits (-20.0 45.0)
           (-30.0 30.0)
           (-30.0 30.0)
  end
  begin
     id 16
     name head
     direction 0.0262167 0.9967 -0.0768276  
     length 1.89541  
     axis 0 0 0   XYZ
    dof rx ry rz
    limits (-20.0 45.0)
           (-30.0 30.0)
           (-30.0 30.0)
  end
  begin
     id 17 
     name lclavicle
     direction 0.946135 0.322134 -0.0325326  
     length 3.949  
     axis 0 0 0   XYZ
    dof ry rz
    limits (-20.0 10.0)
           (0.0 20.0)
  end
  begin
     id 18 
     name lhumerus
     direction 1 -4.48964e-011 1.94005e-028   
     length 5.10995   
     axis 180 -30 -90   XYZ
    dof rx ry rz
    limits (-60.0 90.0)
           (-90.0 90.0)
           (-90.0 90.0)
  end
  begin
     id 19
     name lradius
     direction 1 -4.48976e-011 2.87852e-027   
     length 3.21207   
     axis 180 -30 -90   XYZ
    dof rx
    limits (-10.0 170.0)
  end
  begin
     id 20
     name lwrist
     direction 1 -4.48963e-011 1.9975e-027   
     length 1.60604   
     axis 2.96054e-016 90 90   XYZ
    dof ry
    limits (-180.0 0.0)
 end
  begin
     id 21 
     name lhand
     direction 1 -4.48919e-011 4.00227e-027   
     length 0.63349   
     axis -2.5488e-015 90 90   XYZ
    dof rx rz
    limits (-90.0 90.0)
           (-45.0 45.0)
  end
  begin
     id 22 
     name lfingers
     direction 1 -4.49037e-011 7.9652e-027   
     length 0.510736   
     axis -5.0975e-015 90 90   XYZ
    dof rx
    limits (0.0 90.0)
  end
  begin
     id 23
     name lthumb
     direction 0.707107 -6.34922e-011 0.707107   
     length 0.733318   
     axis -90 45 -4.48553e-014   XYZ
    dof rx rz
    limits (-45.0 45.0)
           (-45.0 45.0)
  end
  begin
     id 24 
     name rclavicle
     direction -0.940085 0.328911 -0.0897654   
     length 3.93848  
     axis 0 0 0   XYZ 
    dof ry rz
    limits (-10.0 20.0)
           (-20.0 0.0)
  end
  begin
     id 25 
     name rhumerus
     direction -1 -4.48958e-011 3.02044e-027  
     length 5.25109   
     axis 180 30 90   XYZ
    dof rx ry rz
    limits (-90.0 60.0)
           (-90.0 90.0)
           (-90.0 90.0)
  end
  begin
     id 26 
     name rradius
     direction -1 -4.4897e-011 9.78352e-028   
     length 3.28364   
     axis 180 30 90   XYZ
    dof rx
    limits (-10.0 170.0)
  end
  begin
     id 27 
     name rwrist
     direction -1 -4.48943e-011 1.99918e-027   
     length 1.64182   
     axis 2.96054e-016 -90 -90   XYZ
    dof ry
    limits (-180.0 0.0)
  end
  begin
     id 28
     name rhand
     direction -1 -4.49024e-011 3.98478e-027   
     length 0.599745   
     axis -2.5488e-015 -90 -90   XYZ
    dof rx rz
    limits (-90.0 90.0)
           (-45.0 45.0)
  end
  begin
     id 29
     name rfingers
     direction -1 -4.48914e-011 8.00621e-027   
     length 0.48353   
     axis -5.0975e-015 -90 -90   XYZ
    dof rx
    limits (0.0 90.0)
  end
  begin
     id 30
     name rthumb
     direction -0.707107 -6.34992e-011 0.707107   
     length 0.694255   
     axis -90 -45 4.48553e-014   XYZ
    dof rx rz
    limits (-45.0 45.0)
           (-45.0 45.0)
  end
:hierarchy
  begin
    root lhipjoint rhipjoint lowerback
    lhipjoint lfemur
    lfemur ltibia
    ltibia lfoot
    lfoot ltoes
    rhipjoint rfemur
    rfemur rtibia
    rtibia rfoot
    rfoot rtoes
    lowerback upperback
    upperback thorax
    thorax lowerneck lclavicle rclavicle
    lowerneck upperneck
    upperneck head
    lclavicle lhumerus
    lhumerus lradius
    lradius lwrist
    lwrist lhand lthumb
    lhand lfingers
    rclavicle rhumerus
    rhumerus rradius
    rradius rwrist
    rwrist rhand rthumb
    rhand rfingers
  end

#!OML:ASF E:\CV Data\Top Level 1\Subject 1\Session 1\player.ASF
:FULLY-SPECIFIED
:DEGREES
163
root 11.7604 16.3674 -2.44441 179.258 -76.0189 -172.078
lowerback 15.5387 -0.0955337 1.61535
upperback 4.83954 -0.118023 1.2807
thorax -3.57061 -0.187993 0.460306
lowerneck -15.4964 18.5737 -3.29361
upperneck 13.1349 25.8984 -0.563894
head 6.11809 12.3301 2.67659
rclavicle -1.0138e-014 4.77083e-015
rhumerus 2.90694 14.1111 -22.9841
rradius 124.251
rwrist -59.8881
rhand -36.7488 -6.45509
rfingers 7.12502
rthumb -9.83231 -36.2055
lclavicle -1.0138e-014 4.77083e-015
lhumerus 72.1093 -63.6909 50.6135
lradius 71.101
lwrist 20.9684
lhand -30.4153 13.6437
lfingers 7.12502
lthumb -3.71852 43.591
rfemur -36.2572 1.42754 14.0611
rtibia 54.6919
rfoot -24.0891 -4.35893
rtoes -8.41431
lfemur -25.3899 11.5357 -2.48197
ltibia 41.6473
lfoot -16.5412 0.686318
ltoes -14.4758
164
root 11.7632 16.3646 -2.45294 179.219 -75.9865 -172.04
lowerback 15.5608 -0.0970498 1.61385
upperback 4.84409 -0.120651 1.27717
thorax -3.5777 -0.189601 0.458081
lowerneck -15.5259 18.6063 -3.31914
upperneck 13.1439 25.9532 -0.585518
head 6.12467 12.3524 2.6813
rclavicle 9.24349e-015 2.14687e-014
rhumerus 2.91911 14.0711 -23.0543
rradius 124.261
rwrist -59.7816
rhand -36.7698 -6.4112
rfingers 7.12502
rthumb -9.85256 -36.1607
lclavicle 9.24349e-015 2.14687e-014
lhumerus 72.064 -63.6495 50.6646
lradius 71.0918
lwrist 20.8892
lhand -30.4143 13.6189
lfingers 7.12502
lthumb -3.71759 43.5662
rfemur -36.2982 1.40228 14.1165
rtibia 54.7493
rfoot -24.108 -4.30364
rtoes -8.39129
lfemur -25.3772 11.5446 -2.42828
ltibia 41.6535
lfoot -16.5358 0.702506
ltoes -14.4436
165
root 11.7662 16.3616 -2.46112 179.2 -75.9501 -172.022
lowerback 15.5818 -0.09978 1.6065
upperback 4.84885 -0.125755 1.27488
thorax -3.5839 -0.192438 0.460889
lowerneck -15.543 18.6315 -3.34416
upperneck 13.1344 25.9987 -0.621528
head 6.12565 12.3701 2.67896
rclavicle -2.41026e-014 -1.59028e-015
rhumerus 2.94818 14.0241 -23.1193
rradius 124.266
rwrist -59.6873
rhand -36.7374 -6.36392
rfingers 7.12502
rthumb -9.82131 -36.1149
lclavicle -2.41026e-014 -1.59028e-015
lhumerus 72.0348 -63.5998 50.6933
lradius 71.0847
lwrist 20.8078
lhand -30.4666 13.5981
lfingers 7.12502
lthumb -3.7681 43.5445
rfemur -36.3456 1.38077 14.1665
rtibia 54.811
rfoot -24.1277 -4.25321
rtoes -8.38246
lfemur -25.3675 11.5552 -2.37891
ltibia 41.6617
lfoot -16.5276 0.714939
ltoes -14.4142
166
root 11.7693 16.3585 -2.46922 179.199 -75.9109 -172.022
lowerback 15.6071 -0.108212 1.59252
upperback 4.85371 -0.139288 1.27379
thorax -3.59238 -0.199487 0.470304
lowerneck -15.5681 18.6624 -3.37203
upperneck 13.1301 26.0526 -0.654404
head 6.12861 12.3915 2.67952
rclavicle 5.36719e-015 -2.52457e-014
rhumerus 3.0036 13.9825 -23.1766
rradius 124.271
rwrist -59.609
rhand -36.7096 -6.32982
rfingers 7.12502
rthumb -9.79447 -36.082
lclavicle 5.36719e-015 -2.52457e-014
lhumerus 71.9744 -63.5353 50.7385
lradius 71.0889
lwrist 20.7375
lhand -30.4982 13.5682
lfingers 7.12502
lthumb -3.79857 43.5141
rfemur -36.3943 1.36063 14.2111
rtibia 54.8767
rfoot -24.1497 -4.2023
rtoes -8.36957
lfemur -25.3556 11.5655 -2.334
ltibia 41.6701
lfoot -16.5188 0.731106
ltoes -14.4089
167
root 11.7724 16.3553 -2.47729 179.239 -75.871 -172.066
lowerback 15.6349 -0.117188 1.5732
upperback 4.85901 -0.154371 1.27238
thorax -3.6017 -0.207324 0.482705
lowerneck -15.598 18.6891 -3.40332
upperneck 13.1284 26.1022 -0.689368
head 6.13312 12.4103 2.68022
rclavicle 1.19768e-014 -1.41137e-014
rhumerus 3.06721 13.9345 -23.2153
rradius 124.281
rwrist -59.5521
rhand -36.6852 -6.30793
rfingers 7.12502
rthumb -9.77091 -36.0613
lclavicle 1.19768e-014 -1.41137e-014
lhumerus 71.9165 -63.4693 50.7844
lradius 71.096
lwrist 20.6668
lhand -30.5218 13.5316
lfingers 7.12502
lthumb -3.82139 43.4771
rfemur -36.4439 1.34245 14.2436
rtibia 54.9461
rfoot -24.1748 -4.15265
rtoes -8.3445
lfemur -25.3407 11.5723 -2.30075
ltibia 41.6768
lfoot -16.5106 0.753244
ltoes -14.4292
168
root 11.7755 16.3522 -2.48548 179.303 -75.8306 -172.137
lowerback 15.6661 -0.126805 1.55343
upperback 4.86384 -0.170363 1.26916
thorax -3.61335 -0.21561 0.493668
lowerneck -15.6317 18.714 -3.42971
upperneck 13.1339 26.1489 -0.722455
head 6.14098 12.4275 2.68168
rclavicle -1.71949e-014 6.95746e-015
rhumerus 3.12961 13.8855 -23.2476
rradius 124.295
rwrist -59.5062
rhand -36.679 -6.29127
rfingers 7.12502
rthumb -9.76491 -36.0449
lclavicle -1.71949e-014 6.95746e-015
lhumerus 71.861 -63.4064 50.8296
lradius 71.1069
lwrist 20.5986
lhand -30.521 13.493
lfingers 7.12502
lthumb -3.82062 43.4384
rfemur -36.4924 1.32689 14.2685
rtibia 55.0181
rfoot -24.2017 -4.10573
rtoes -8.30955
lfemur -25.3218 11.5768 -2.27487
ltibia 41.6816
lfoot -16.5041 0.780878
ltoes -14.4684
169
root 11.7786 16.3491 -2.49379 179.385 -75.792 -172.228
lowerback 15.7008 -0.136531 1.53402
upperback 4.86762 -0.186359 1.265
thorax -3.62796 -0.22389 0.503495
lowerneck -15.6659 18.7373 -3.45682
upperneck 13.1425 26.1934 -0.753007
head 6.14946 12.4436 2.68394
rclavicle -5.13858e-014 1.96797e-014
rhumerus 3.18357 13.8417 -23.2751
rradius 124.312
rwrist -59.4607
rhand -36.7058 -6.28102
rfingers 7.12502
rthumb -9.79085 -36.0334
lclavicle -5.13858e-014 1.96797e-014
lhumerus 71.8136 -63.3497 50.88
lradius 71.1137
lwrist 20.5339
lhand -30.4869 13.451
lfingers 7.12502
lthumb -3.78767 43.3971
rfemur -36.5394 1.31218 14.2875
rtibia 55.0925
rfoot -24.2302 -4.06009
rtoes -8.26769
lfemur -25.3006 11.5821 -2.25539
ltibia 41.6849
lfoot -16.4996 0.810071
ltoes -14.528
170
root 11.7817 16.3459 -2.50206 179.461 -75.7542 -172.315
lowerback 15.7387 -0.147812 1.52157
upperback 4.87057 -0.203332 1.25868
thorax -3.6452 -0.232644 0.507334
lowerneck -15.6941 18.7612 -3.4688
upperneck 13.1466 26.2358 -0.788534
head 6.15821 12.4593 2.68253
rclavicle -1.86858e-014 9.14409e-015
rhumerus 3.22956 13.8039 -23.3088
rradius 124.331
rwrist -59.4121
rhand -36.7564 -6.2723
rfingers 7.12502
rthumb -9.8396 -36.0224
lclavicle -1.86858e-014 9.14409e-015
lhumerus 71.7825 -63.2979 50.9223
lradius 71.1157
lwrist 20.4751
lhand -30.432 13.4202
lfingers 7.12502
lthumb -3.73466 43.3672
rfemur -36.5855 1.29822 14.3079
rtibia 55.1686
rfoot -24.2588 -4.01612
rtoes -8.21508
lfemur -25.2781 11.5898 -2.23538
ltibia 41.6879
lfoot -16.4964 0.838536
ltoes -14.6015
171
root 11.7849 16.3426 -2.51019 179.531 -75.7179 -172.394
lowerback 15.7753 -0.159166 1.51339
upperback 4.87303 -0.219726 1.25256
thorax -3.66221 -0.241091 0.508863
lowerneck -15.719 18.7839 -3.47772
upperneck 13.1485 26.2762 -0.826653
head 6.16651 12.474 2.67954
rclavicle 2.70347e-014 3.37934e-015
rhumerus 3.26595 13.7679 -23.3462
rradius 124.346
rwrist -59.3505
rhand -36.8094 -6.26517
rfingers 7.12502
rthumb -9.8908 -36.0128
lclavicle 2.70347e-014 3.37934e-015
lhumerus 71.7765 -63.2509 50.9514
lradius 71.1105
lwrist 20.4198
lhand -30.3859 13.3972
lfingers 7.12502
lthumb -3.69008 43.345
rfemur -36.6336 1.28707 14.3298
rtibia 55.2464
rfoot -24.2861 -3.98011
rtoes -8.18173
lfemur -25.2584 11.5969 -2.21477
ltibia 41.6918
lfoot -16.4933 0.868345
ltoes -14.6769
172
root 11.7881 16.3393 -2.5181 179.599 -75.6824 -172.471
lowerback 15.8115 -0.1711 1.51262
upperback 4.87515 -0.235845 1.24331
thorax -3.67936 -0.249367 0.502888
lowerneck -15.7362 18.8035 -3.49414
upperneck 13.1386 26.3127 -0.864595
head 6.16891 12.4873 2.67529
rclavicle 1.81391e-014 1.21259e-014
rhumerus 3.28933 13.7374 -23.3916
rradius 124.361
rwrist -59.2822
rhand -36.8678 -6.25945
rfingers 7.12502
rthumb -9.94711 -36.0044
lclavicle 1.81391e-014 1.21259e-014
lhumerus 71.7888 -63.2102 50.9692
lradius 71.1009
lwrist 20.3762
lhand -30.3289 13.3808
lfingers 7.12502
lthumb -3.63508 43.3296
rfemur -36.6826 1.27946 14.3512
rtibia 55.3256
rfoot -24.3128 -3.94544
rtoes -8.13749
lfemur -25.2403 11.6036 -2.19364
ltibia 41.6971
lfoot -16.4907 0.894669
ltoes -14.7309
173
root 11.7912 16.3358 -2.52552 179.669 -75.6476 -172.546
lowerback 15.8397 -0.179198 1.51828
upperback 4.8772 -0.246076 1.23217
thorax -3.69235 -0.254657 0.490124
lowerneck -15.7496 18.8154 -3.49183
upperneck 13.1254 26.3356 -0.90933
head 6.17317 12.4945 2.66599
rclavicle 3.97569e-014 1.0138e-014
rhumerus 3.29443 13.6936 -23.4326
rradius 124.376
rwrist -59.2151
rhand -36.8814 -6.24824
rfingers 7.12502
rthumb -9.96019 -35.9926
lclavicle 3.97569e-014 1.0138e-014
lhumerus 71.8475 -63.1829 50.9411
lradius 71.0927
lwrist 20.3312
lhand -30.3348 13.3758
lfingers 7.12502
lthumb -3.64079 43.3244
rfemur -36.7373 1.27616 14.3712
rtibia 55.4057
rfoot -24.3374 -3.92141
rtoes -8.1202
lfemur -25.2286 11.6075 -2.17411
ltibia 41.7042
lfoot -16.4874 0.921086
ltoes -14.7749
174
root 11.7943 16.3323 -2.53267 179.745 -75.6119 -172.624
lowerback 15.8666 -0.218106 1.47403
upperback 4.88143 -0.303081 1.26637
thorax -3.70212 -0.283432 0.562016
lowerneck -15.7799 18.8543 -3.59449
upperneck 13.1102 26.4157 -0.943079
head 6.16397 12.5261 2.67471
rclavicle 7.30534e-015 1.39149e-015
rhumerus 3.45819 13.6882 -23.4029
rradius 124.38
rwrist -59.1641
rhand -36.8543 -6.23473
rfingers 7.12502
rthumb -9.93405 -35.9803
lclavicle 7.30534e-015 1.39149e-015
lhumerus 71.7003 -63.0553 51.1132
lradius 71.079
lwrist 20.2614
lhand -30.4031 13.3721
lfingers 7.12502
lthumb -3.70674 43.3197
rfemur -36.7954 1.2745 14.3896
rtibia 55.4861
rfoot -24.3615 -3.90011
rtoes -8.11112
lfemur -25.2203 11.6085 -2.15642
ltibia 41.7127
lfoot -16.4832 0.954784
ltoes -14.8356
175
root 11.7971 16.3288 -2.53963 179.831 -75.5761 -172.714
lowerback 15.8914 -0.241034 1.45345
upperback 4.88662 -0.336412 1.27648
thorax -3.70982 -0.300331 0.590747
lowerneck -15.8066 18.8751 -3.64951
upperneck 13.095 26.4604 -0.9719
head 6.15994 12.5429 2.67735
rclavicle 4.91992e-015 1.39149e-015
rhumerus 3.53692 13.656 -23.3962
rradius 124.401
rwrist -59.1202
rhand -36.8297 -6.2313
rfingers 7.12502
rthumb -9.91031 -35.978
lclavicle 4.91992e-015 1.39149e-015
lhumerus 71.6571 -62.9838 51.179
lradius 71.0718
lwrist 20.207
lhand -30.4528 13.3615
lfingers 7.12502
lthumb -3.7547 43.3082
rfemur -36.8505 1.27637 14.403
rtibia 55.5658
rfoot -24.3871 -3.88187
rtoes -8.11374
lfemur -25.2103 11.6047 -2.14289
ltibia 41.7222
lfoot -16.4794 0.994081
ltoes -14.9003
176
root 11.7999 16.3255 -2.54651 179.922 -75.5406 -172.811
lowerback 15.9153 -0.25563 1.44658
upperback 4.89251 -0.357198 1.2741
thorax -3.71636 -0.310948 0.596252
lowerneck -15.8292 18.887 -3.6752
upperneck 13.0802 26.4866 -0.999524
head 6.15909 12.5522 2.67589
rclavicle -5.03919e-014 8.54774e-015
rhumerus 3.56698 13.6067 -23.4088
rradius 124.428
rwrist -59.0787
rhand -36.803 -6.22664
rfingers 7.12502
rthumb -9.88454 -35.9746
lclavicle -5.03919e-014 8.54774e-015
lhumerus 71.6665 -62.9442 51.1927
lradius 71.0665
lwrist 20.1568
lhand -30.493 13.3462
lfingers 7.12502
lthumb -3.79352 43.2922
rfemur -36.9021 1.28366 14.4129
rtibia 55.6439
rfoot -24.4131 -3.86923
rtoes -8.12121
lfemur -25.1981 11.5989 -2.13177
ltibia 41.7311
lfoot -16.4749 1.03524
ltoes -14.966
